<?xml version="1.0" encoding="UTF-8"?>
<svg width="1024" height="1024" xmlns="http://www.w3.org/2000/svg">
  <!-- 背景圆形 -->
  <circle cx="512" cy="512" r="480" fill="#F25566"/>
  
  <!-- 番茄主体 -->
  <ellipse cx="512" cy="540" rx="360" ry="320" fill="#F85A6A"/>
  
  <!-- 番茄顶部凹陷 -->
  <ellipse cx="512" cy="220" rx="120" ry="60" fill="#F85A6A"/>
  
  <!-- 左叶子 -->
  <path d="M512 220 Q400 180 320 250 Q280 300 380 320 Q450 300 512 220" fill="#5ACA90"/>
  <path d="M512 220 Q420 200 360 260" stroke="#3FA876" stroke-width="8" fill="none"/>
  
  <!-- 右叶子 -->
  <path d="M512 220 Q624 180 704 250 Q744 300 644 320 Q574 300 512 220" fill="#5ACA90"/>
  <path d="M512 220 Q604 200 664 260" stroke="#3FA876" stroke-width="8" fill="none"/>
  
  <!-- 中央叶子 -->
  <ellipse cx="512" cy="180" rx="30" ry="60" fill="#5ACA90"/>
  
  <!-- 高光 -->
  <ellipse cx="380" cy="450" rx="80" ry="50" fill="white" opacity="0.3"/>
  <ellipse cx="360" cy="520" rx="40" ry="25" fill="white" opacity="0.4"/>
  
  <!-- 阴影 -->
  <ellipse cx="512" cy="840" rx="200" ry="30" fill="black" opacity="0.15"/>
</svg>
